<svg xmlns="http://www.w3.org/2000/svg" viewBox="0 0 64 64">
  <!-- Background circle -->
  <circle cx="32" cy="32" r="32" fill="#064e3b"/>
  <!-- Leaf shape -->
  <path d="M32 8 C18 14, 10 26, 14 40 C18 54, 32 58, 32 58 C32 58, 32 44, 32 32 C32 20, 32 8, 32 8 Z" fill="#a7f3d0"/>
  <path d="M32 8 C46 14, 54 26, 50 40 C46 54, 32 58, 32 58 C32 58, 32 44, 32 32 C32 20, 32 8, 32 8 Z" fill="#059669"/>
  <!-- Stem -->
  <line x1="32" y1="58" x2="32" y2="52" stroke="#a7f3d0" stroke-width="2" stroke-linecap="round"/>
  <!-- Midrib -->
  <line x1="32" y1="12" x2="32" y2="56" stroke="#064e3b" stroke-width="1.5" stroke-linecap="round" opacity="0.6"/>
</svg>
